<svg xmlns="http://www.w3.org/2000/svg" viewBox="0 0 900 520" role="img" aria-label="Post image preview">
  <defs>
    <linearGradient id="wall" x1="0" x2="1" y1="0" y2="1">
      <stop offset="0" stop-color="#f7f7f8"/>
      <stop offset="1" stop-color="#8d8d93"/>
    </linearGradient>
  </defs>
  <rect width="900" height="520" rx="28" fill="url(#wall)"/>
  <g transform="translate(120 120)">
    <rect x="120" y="150" width="230" height="22" rx="11" fill="#34343a"/>
    <rect x="195" y="80" width="18" height="190" fill="#f2f2f2"/>
    <rect x="270" y="80" width="18" height="190" fill="#f2f2f2"/>
    <rect x="130" y="80" width="230" height="16" rx="8" fill="#d9d9dd"/>
    <circle cx="105" cy="88" r="40" fill="#111116"/>
    <circle cx="385" cy="88" r="40" fill="#111116"/>
    <rect x="105" y="79" width="280" height="18" rx="9" fill="#1e1e24"/>
    <ellipse cx="235" cy="210" rx="85" ry="36" fill="#b85c3d"/>
    <circle cx="170" cy="190" r="28" fill="#e2a27c"/>
    <path d="M225 175c45 20 83 12 111-24" stroke="#8d3b2a" stroke-width="16" stroke-linecap="round" fill="none"/>
  </g>
  <g transform="translate(520 105)">
    <rect x="120" y="160" width="230" height="22" rx="11" fill="#34343a"/>
    <rect x="195" y="90" width="18" height="190" fill="#f2f2f2"/>
    <rect x="270" y="90" width="18" height="190" fill="#f2f2f2"/>
    <rect x="130" y="90" width="230" height="16" rx="8" fill="#d9d9dd"/>
    <circle cx="105" cy="98" r="40" fill="#111116"/>
    <circle cx="385" cy="98" r="40" fill="#111116"/>
    <rect x="105" y="89" width="280" height="18" rx="9" fill="#1e1e24"/>
    <ellipse cx="240" cy="218" rx="85" ry="36" fill="#b85c3d"/>
    <circle cx="178" cy="196" r="28" fill="#e2a27c"/>
    <path d="M230 181c45 20 83 12 111-24" stroke="#8d3b2a" stroke-width="16" stroke-linecap="round" fill="none"/>
  </g>
</svg>
